<?xml version="1.0" encoding="utf-8"?>
<!-- Generator: Adobe Illustrator 28.3.0, SVG Export Plug-In . SVG Version: 6.00 Build 0)  -->
<svg version="1.1" id="Lager_1" xmlns="http://www.w3.org/2000/svg" xmlns:xlink="http://www.w3.org/1999/xlink" x="0px" y="0px"
	 viewBox="0 0 200 200" style="enable-background:new 0 0 200 200;" xml:space="preserve">
<style type="text/css">
	.st0{display:none;}
	.st1{display:inline;fill:#968F95;}
	.st2{display:inline;fill:#81787F;}
	.st3{display:inline;fill:#A19F9C;}
	.st4{fill:#261B14;}
</style>
<g>
	<g id="Background_00000063631315855554697520000016837185240767431842_" class="st0">
		<path class="st1" d="M116.99-33.74c0,0.33,0,0.33,0,0.65c8.01,8.74,14.86,18.53,22.98,27.16c14.74,15.66,21.84,16.65,32.26,26.25
			c6.79,6.25,11.69,14.01,17.89,20.76c6.29,6.85,12.65,11.46,17.89,16.59c8.65,8.45,16.98,17.24,25.73,25.6c0,2.87,0,5.75,0,8.62
			c-5.42-6.4-12.18-11.44-18.15-17.24c-5.57-5.41-23.37-23.36-27.82-28.34c-6.97-7.81-12.2-17.07-19.98-24.16
			c-9.29-8.47-19.15-11.48-28.34-21.29c-8.97-9.57-14.55-23.45-28.99-34.61C112.64-33.74,114.82-33.74,116.99-33.74z"/>
		<path class="st2" d="M110.46-33.74c14.45,11.16,20.03,25.04,28.99,34.61c9.19,9.8,19.04,12.82,28.34,21.29
			c7.78,7.09,13.01,16.35,19.98,24.16c4.45,4.98,22.24,22.93,27.82,28.34c5.97,5.79,12.74,10.84,18.15,17.24c0,1.65,0,3.31,0,4.96
			c-10.94-10.52-22.65-20.29-33.56-30.82c-4.53-4.37-13.16-14.26-14.1-14.63c-0.14-0.06-0.43,0.03-0.65,0
			c-5.01-8.67-15.22-20.61-22.85-27.16c-4.43-3.8-9.79-7-13.71-10.19c-0.08-0.06,0.16-0.48-1.18-1.57
			c-2.78-2.26-5.93-4.13-8.62-6.53c-7.77-6.94-11.97-14.41-18.41-22.07c-5.14-6.11-11.09-11.49-16.19-17.63
			C106.46-33.74,108.46-33.74,110.46-33.74z"/>
		<path class="st2" d="M121.96-33.74c2.57,2.88,4.73,6.15,7.31,9.01c1.25,1.38,24.9,24.8,26.51,26.25
			c8.08,7.3,14.5,9.71,24.16,19.98c3.87,4.12,7.12,8.92,10.97,13.06c12.02,12.94,30.52,26.72,42.84,42.18c0,2.18,0,4.35,0,6.53
			c-8.75-8.36-17.08-17.14-25.73-25.6c-5.25-5.13-11.6-9.73-17.89-16.59c-6.2-6.75-11.1-14.51-17.89-20.76
			c-10.42-9.6-17.52-10.59-32.26-26.25c-8.13-8.63-14.97-18.43-22.98-27.16c0-0.33,0-0.33,0-0.65
			C118.65-33.74,120.3-33.74,121.96-33.74z"/>
		<path class="st2" d="M24.27,162.15c2.18,2.58,10.77,11.21,13.32,13.32c5.68,7.96,13.22,14.37,19.59,21.81
			c4.54,5.3,8.42,11.21,13.06,16.45c6.22,7.04,13.41,13.16,19.85,19.98c-2,0-4,0-6.01,0c-14.4-13.09-27.15-33.28-40.35-45.19
			c-2.96-2.67-6.45-4.84-9.4-7.57c-3.44-3.18-16.77-17.28-21.29-22.07c-3.36-3.57-6.85-8.49-9.66-11.49
			c-9.8-10.48-26.24-21.8-37.09-35.91c0-2.18,0-4.35,0-6.53c12.3,16.84,30.44,27.83,42.31,40.88c3.14,3.45,5.64,7.58,8.88,10.97
			C18.92,158.3,22.85,162.15,24.27,162.15z"/>
		<path class="st1" d="M129.53-33.74c5.64,8.07,13.8,14.94,20.9,22.07c3.96,3.98,7.3,8.72,11.62,12.41
			c5.37,4.58,11.98,7.61,13.84,9.14c2.97,2.44,8.46,11.06,11.62,14.76c11.45,13.38,33.03,28.74,46.23,42.97c0,3.05,0,6.09,0,9.14
			c-12.31-15.46-30.82-29.25-42.84-42.18c-3.85-4.14-7.1-8.94-10.97-13.06c-9.66-10.27-16.08-12.68-24.16-19.98
			c-1.61-1.45-25.26-24.87-26.51-26.25c-2.59-2.86-4.75-6.13-7.31-9.01C124.48-33.74,127.01-33.74,129.53-33.74z"/>
		<path class="st2" d="M78.34,233.72c-2.35,0-4.7,0-7.05,0c-10.21-11.99-23.58-30.03-34.87-40.22c-4.76-4.3-10.09-7.81-14.76-12.41
			c-11.32-11.13-27.75-33.64-37.74-42.18c-5.65-4.83-12.31-8.56-17.63-13.84c0-1.92,0-3.83,0-5.75
			c9.95,9.31,23.54,18.26,32.13,28.34c2.45,2.87,5.27,7.48,8.1,10.71c3.06,3.49,19.83,21.68,21.81,23.38
			c3.62,3.09,10.23,6.85,14.63,10.71C52.24,200.6,69.54,223.18,78.34,233.72z"/>
		<path class="st2" d="M67.11,233.72c-3.4,0-6.79,0-10.19,0c-6.87-6.47-10.84-15.21-16.45-22.59c-4.65-6.11-28.11-30.26-34.61-36.44
			c-6.31-5.99-13.34-11.18-19.46-17.37c-6.86-6.94-12.7-15.09-20.11-21.55c0-1.83,0-3.66,0-5.48c14.84,13.02,28.67,27.13,42.31,41.4
			c2.45,2.56,5.06,6.47,7.57,9.14c9.56,10.16,19.27,16.36,25.86,23.51c5.08,5.52,8.54,12.1,13.32,17.76
			C58.92,226.33,63.27,229.76,67.11,233.72z"/>
		<path class="st1" d="M71.29,233.72c-1.39,0-2.79,0-4.18,0c-3.84-3.96-8.18-7.39-11.75-11.62c-4.78-5.66-8.24-12.25-13.32-17.76
			c-6.59-7.15-16.3-13.35-25.86-23.51c-2.51-2.67-5.13-6.59-7.57-9.14c-13.64-14.26-27.47-28.37-42.31-41.4c0-1.74,0-3.48,0-5.22
			c5.32,5.28,11.98,9.01,17.63,13.84c10,8.54,26.43,31.05,37.74,42.18c4.67,4.59,10,8.11,14.76,12.41
			C47.7,203.69,61.08,221.73,71.29,233.72z"/>
		<path class="st1" d="M84.08,233.72c-1.92,0-3.83,0-5.75,0c-8.8-10.54-26.09-33.11-35.39-41.27c-4.4-3.86-11.01-7.62-14.63-10.71
			c-1.98-1.69-18.75-19.89-21.81-23.38c-2.83-3.23-5.65-7.84-8.1-10.71c-8.59-10.08-22.17-19.03-32.13-28.34c0-2.61,0-5.22,0-7.84
			c10.85,14.12,27.29,25.43,37.09,35.91c2.81,3.01,6.3,7.93,9.66,11.49c4.52,4.79,17.85,18.89,21.29,22.07
			c2.95,2.73,6.44,4.9,9.4,7.57C56.93,200.44,69.69,220.63,84.08,233.72z"/>
		<path class="st2" d="M134.49-33.74c17.11,18.04,36.04,34.24,54.07,51.32c14.75,20,27.4,27.49,45.19,42.97c0,2.35,0,4.7,0,7.05
			c-13.21-14.22-34.78-29.59-46.23-42.97c-3.16-3.7-8.66-12.32-11.62-14.76c-1.86-1.53-8.47-4.56-13.84-9.14
			c-4.32-3.69-7.66-8.43-11.62-12.41c-7.1-7.13-15.26-14.01-20.9-22.07C131.19-33.74,132.84-33.74,134.49-33.74z"/>
		<path class="st1" d="M56.92,233.72c-1.31,0-2.61,0-3.92,0c-7.46-7.27-14.79-14.81-21.42-22.85c-6.53-7.93-13.48-18.89-18.02-24.03
			c-7.64-8.65-19.48-15.68-28.34-23.64c-6.74-6.06-12.72-13.01-18.94-19.59c0-2.61,0-5.22,0-7.84c7.41,6.46,13.25,14.6,20.11,21.55
			c6.12,6.19,13.15,11.38,19.46,17.37c6.5,6.18,29.96,30.32,34.61,36.44C46.08,218.51,50.05,227.24,56.92,233.72z"/>
		<path class="st2" d="M53,233.72c-2.87,0-5.75,0-8.62,0c-6.67-7.77-14-15.15-20.11-23.38C18.82,203,14.7,194.75,8.6,187.88
			c-8.23-9.27-16.17-12.9-23.64-19.2c-6.78-5.72-12.49-12.74-18.68-19.07c0-2,0-4,0-6.01c6.22,6.58,12.19,13.53,18.94,19.59
			c8.86,7.96,20.7,14.99,28.34,23.64c4.54,5.14,11.49,16.1,18.02,24.03C38.21,218.91,45.54,226.45,53,233.72z"/>
		<path class="st1" d="M140.24-33.74c5.74,7.84,14.09,13.03,21.03,19.59c4.19,3.96,7.71,8.66,12.01,12.54
			c4.52,4.08,9.96,7.26,14.23,11.62c5.23,5.35,8.89,12.18,13.84,17.76c7.75,8.73,22.12,19.63,32.39,25.47c0,2.44,0,4.88,0,7.31
			c-17.78-15.48-30.43-22.97-45.19-42.97C170.54,0.5,151.61-15.7,134.49-33.74C136.41-33.74,138.32-33.74,140.24-33.74z"/>
		<path class="st2" d="M146.25-33.74c7.17,8.94,15.78,14.57,22.33,20.63c9.24,8.54,17.96,17.78,27.29,26.25
			c12.08,16.74,21.02,24.25,37.87,35.91c0,1.39,0,2.79,0,4.18c-10.27-5.84-24.64-16.74-32.39-25.47
			c-4.96-5.58-8.61-12.41-13.84-17.76c-4.27-4.37-9.71-7.55-14.23-11.62c-4.3-3.88-7.83-8.58-12.01-12.54
			c-6.93-6.55-15.29-11.75-21.03-19.59C142.24-33.74,144.24-33.74,146.25-33.74z"/>
		<path class="st2" d="M40.99,233.72c-2.44,0-4.88,0-7.31,0C20.9,222.11,7.24,201.61-2.89,190.75
			c-9.47-10.15-21.46-17.54-30.82-27.82c0-2.18,0-4.35,0-6.53c10.24,9.93,21.64,18.64,31.6,28.86
			C11.97,199.69,26.28,218.99,40.99,233.72z"/>
		<path class="st2" d="M233.75,226.14c-0.04,2.35,0.03,4.7,0,7.05c-1.34,0.23-7.32-5.82-9.4-7.97c-5.96-6.14-11.1-13.12-16.98-19.33
			c-6.27-6.62-13.32-12.45-19.59-19.07c-6.04-6.37-11.39-13.43-17.24-19.98c0.78-0.81,2.22-2.62,3.13-3.66
			c11.45,12.96,24.18,24.66,36.04,37.22C217.77,208.94,224.8,218.48,233.75,226.14z"/>
		<path class="st1" d="M152.78-33.74c5.38,7.78,13.88,12.78,20.76,19.07c4.3,3.93,7.82,8.56,11.88,12.67
			c5.62,5.68,11.44,11.21,16.98,16.98c3.88,4.05,6.94,8.8,11.1,12.67c6.34,5.9,14.13,10.47,20.24,16.72c0,1.57,0,3.13,0,4.7
			c-16.85-11.66-25.8-19.17-37.87-35.91c-9.33-8.47-18.05-17.71-27.29-26.25c-6.56-6.06-15.17-11.69-22.33-20.63
			C148.42-33.74,150.6-33.74,152.78-33.74z"/>
		<path class="st1" d="M233.75,233.2c0.33,0.9-4.9,0.48-8.1,0.52c-18.42-22.29-41.14-40.34-60.07-62.16
			c1.66-1.51,3.41-3.09,4.96-4.7c5.85,6.55,11.2,13.61,17.24,19.98c6.27,6.61,13.32,12.44,19.59,19.07
			c5.88,6.21,11.02,13.19,16.98,19.33C226.42,227.37,232.4,233.42,233.75,233.2z"/>
		<path class="st1" d="M166.36-33.74c4.95,5.94,10.93,10.95,16.19,16.59c4.46,4.77,8.02,10.36,12.93,14.76
			c4.36,3.91,13.97,10.16,20.9,16.45c6.2,5.64,11.37,12.19,17.37,18.02c0,1.65,0,3.31,0,4.96c-9.55-7.07-17.78-15.53-26.51-23.51
			c-5.58-5.1-11.57-9.21-16.85-15.02c-2.82-3.1-5.02-6.83-7.84-9.93c-7.24-7.97-17.42-14.22-24.81-22.33
			C160.61-33.74,163.49-33.74,166.36-33.74z"/>
		<path class="st1" d="M-31.88-33.74c6.82,7.21,13.19,14.97,20.11,22.07C-4.4-4.11,4,2.58,10.95,10.53
			c6.21,7.1,10.89,15.86,19.07,21.03c-1.59,1.61-3.22,3.25-4.7,4.96c-9.05-7.63-13.58-17.61-20.63-25.73
			c-8.85-10.19-28.4-25.57-38.39-37.74c0.04-2.26-0.03-4.53,0-6.79C-33.11-33.78-32.49-33.69-31.88-33.74z"/>
		<path class="st2" d="M157.74-33.74c7.39,8.11,17.57,14.36,24.81,22.33c2.81,3.1,5.02,6.83,7.84,9.93
			c5.28,5.81,11.27,9.92,16.85,15.02c8.73,7.98,16.96,16.44,26.51,23.51c0,2.44,0,4.88,0,7.31c-6.11-6.25-13.9-10.82-20.24-16.72
			c-4.16-3.87-7.22-8.62-11.1-12.67c-5.54-5.77-11.35-11.29-16.98-16.98c-4.07-4.11-7.58-8.74-11.88-12.67
			c-6.89-6.29-15.39-11.29-20.76-19.07C154.43-33.74,156.09-33.74,157.74-33.74z"/>
		<path class="st1" d="M33.67,233.72c-2.35,0-4.7,0-7.05,0c-11.31-11.79-20.34-25.61-31.6-37.48c-8.61-9.08-19.51-15.02-28.73-27.29
			c0-2,0-4,0-6.01c9.36,10.27,21.35,17.67,30.82,27.82C7.24,201.61,20.9,222.11,33.67,233.72z"/>
		<path class="st2" d="M-27.44-33.74c11.41,7.28,16.27,15.07,24.03,22.85C2.03-5.43,13.98,5.34,17.48,9.49
			c4.13,4.89,7.96,12.02,15.67,18.94c-1.1,1.02-2.08,2.07-3.13,3.13c-8.17-5.17-12.86-13.92-19.07-21.03
			C4,2.58-4.4-4.11-11.77-11.67c-6.92-7.1-13.29-14.86-20.11-22.07C-30.48-33.86-28.88-33.71-27.44-33.74z"/>
		<path class="st1" d="M44.38,233.72c-1.13,0-2.26,0-3.4,0c-14.71-14.73-29.02-34.02-43.1-48.45c-9.97-10.22-21.36-18.93-31.6-28.86
			c0-2.26,0-4.53,0-6.79c6.19,6.32,11.89,13.34,18.68,19.07c7.46,6.3,15.41,9.92,23.64,19.2c6.1,6.87,10.22,15.13,15.67,22.46
			C30.38,218.57,37.72,225.95,44.38,233.72z"/>
		<path class="st1" d="M-4.46-33.74c4.79,5.36,10.95,9.37,15.93,14.5c4.26,4.38,7.64,9.62,11.75,14.1
			c7.37,8.04,14.72,16.31,23.25,23.12c-2.22,1.47-4.43,3.07-6.53,4.7C23.38,2.84,7.55-17.88-13.08-33.74
			C-10.21-33.75-7.33-33.73-4.46-33.74z"/>
		<path class="st1" d="M178.63-33.74c10.31,9.89,20.07,20.5,30.95,29.78c7.92,6.74,16.73,12.28,24.16,19.59c0,3.13,0,6.27,0,9.4
			c-10.66-15.54-24.2-21.89-35.13-31.34c-7.05-6.1-20.15-20.12-27.56-27.42C173.58-33.74,176.11-33.74,178.63-33.74z"/>
		<path class="st2" d="M171.06-33.74c7.4,7.3,20.51,21.33,27.56,27.42c10.93,9.46,24.47,15.8,35.13,31.34c0,2.35,0,4.7,0,7.05
			c-6-5.83-11.17-12.38-17.37-18.02c-6.92-6.3-16.53-12.55-20.9-16.45c-4.91-4.39-8.47-9.99-12.93-14.76
			c-5.27-5.64-11.24-10.64-16.19-16.59C167.93-33.74,169.49-33.74,171.06-33.74z"/>
		<path class="st1" d="M20.88,233.72c-2.44,0-4.88,0-7.31,0c-16.07-17.06-30.8-35.29-47.28-51.98c0-2.44,0-4.88,0-7.31
			C-13.95,192.75,2.54,214.05,20.88,233.72z"/>
		<path class="st1" d="M-18.3-33.74C2.78-16.76,17.73,6.11,36.03,25.81c-0.98,0.84-1.93,1.74-2.87,2.61
			c-7.71-6.91-11.54-14.04-15.67-18.94C13.98,5.34,2.03-5.43-3.41-10.89c-7.76-7.78-12.62-15.57-24.03-22.85
			C-24.4-33.8-21.35-33.72-18.3-33.74z"/>
		<path class="st1" d="M219.9,233.72c-2.52,0.02-5.05-0.01-7.57,0c-17.26-19.36-35.9-37.41-53.81-56.16
			c0.98-0.74,2.53-2.19,3.66-3.13c4.61,7.36,12.63,12.49,18.94,18.54C194.34,205.68,206.56,220.92,219.9,233.72z"/>
		<path class="st1" d="M233.75,218.57c-0.02,2.52,0.04,5.05,0,7.57c-8.95-7.66-15.98-17.2-24.03-25.73
			c-11.86-12.56-24.6-24.26-36.04-37.22c1.14-1.3,2.32-2.56,3.4-3.92c5.32,7.92,11.58,15.29,18.68,21.68
			c3.37,3.04,7.35,5.55,10.71,8.62C216.28,198.56,223.43,210.07,233.75,218.57z"/>
		<path class="st2" d="M26.62,233.72c-1.92,0-3.83,0-5.75,0c-18.33-19.67-34.83-40.97-54.59-59.29c0-1.83,0-3.66,0-5.48
			c9.22,12.28,20.12,18.22,28.73,27.29C6.28,208.11,15.31,221.93,26.62,233.72z"/>
		<path class="st1" d="M47.26,182.26c4.53,4.72,9.8,8.49,14.37,13.19c4.24,4.36,8.7,10.27,13.06,14.89
			c8.77,9.28,16.29,16.79,27.42,23.38c-4,0-8.01,0-12.01,0c-6.44-6.82-13.63-12.94-19.85-19.98c-4.64-5.25-8.52-11.15-13.06-16.45
			c-6.37-7.44-13.91-13.85-19.59-21.81C38.82,176.49,45.75,181.35,47.26,182.26z"/>
		<path class="st2" d="M233.75,211.26c-0.01,2.44,0.02,4.88,0,7.31c-10.32-8.5-17.46-20.01-27.29-28.99
			c-3.36-3.07-7.34-5.58-10.71-8.62c-7.09-6.39-13.35-13.76-18.68-21.68c0.95-1.19,2.31-2.76,3.13-3.92
			c7.75,9.97,15.67,19.88,24.94,28.47c2.4,2.22,6.13,4.69,8.62,7.05C220.67,197.42,227.09,204.47,233.75,211.26z"/>
		<path class="st2" d="M-13.08-33.74C7.55-17.88,23.38,2.84,39.94,22.68c-1.32,1.02-2.65,2.05-3.92,3.13
			C17.73,6.11,2.78-16.76-18.3-33.74C-16.56-33.75-14.82-33.73-13.08-33.74z"/>
		<path class="st2" d="M200.57,233.72c-2.26,0-4.53,0-6.79,0c-14.61-17.19-31.16-32.57-46.49-49.1c1.41-0.78,2.81-1.5,4.18-2.35
			c9.24,10.18,20.59,18.32,29.78,28.6C187.89,218.3,193.1,226.99,200.57,233.72z"/>
		<path class="st2" d="M225.65,233.72c-1.91,0.03-3.83-0.01-5.75,0c-13.35-12.8-25.56-28.04-38.79-40.75
			c-6.3-6.06-14.32-11.18-18.94-18.54c1.14-0.95,2.3-1.87,3.4-2.87C184.51,193.38,207.23,211.43,225.65,233.72z"/>
		<path class="st2" d="M15.91,49.58c-0.75,1.28-1.4,2.61-2.09,3.92C-2.95,37.07-16.93,17.99-33.71,1.52c0-2.09-0.01-4.18,0-6.27
			C-16.14,12.43,0.81,30.16,15.91,49.58z"/>
		<path class="st1" d="M193.78,233.72c-2.35,0-4.7,0-7.05,0c-13.56-16.48-31.12-29.08-43.36-46.75c0.76-0.38,2.67-1.66,3.92-2.35
			C162.62,201.15,179.17,216.53,193.78,233.72z"/>
		<path class="st2" d="M8.08,133.68c1.75,4.79,5.71,12.79,8.36,17.24c-4.01-3.71-7.14-8.41-10.97-12.41
			c-5.21-5.44-12.7-11.55-19.33-18.81c-6.85-7.49-12.59-15.97-19.85-23.12c0-1.48,0-2.96,0-4.44c4.11,4.43,10.06,8.12,14.23,12.01
			C-12.67,110.52-1.42,126.14,8.08,133.68z"/>
		<path class="st1" d="M13.82,53.5c-0.74,1.41-1.41,2.73-2.09,4.18C-4.73,42.57-18.42,25.04-33.71,8.83c0-2.44-0.01-4.88,0-7.31
			C-16.93,17.99-2.95,37.07,13.82,53.5z"/>
		<path class="st2" d="M25.32,36.52c-0.68,0.79-1.44,1.54-2.09,2.35c-2.72-1.95-7.65-6.98-9.93-9.79c-2.84-3.5-5.79-8.95-8.36-12.28
			C-3.28,6.12-8.9,3.7-16.87-3.44c-5.99-5.37-11.2-11.53-16.85-17.24c0.02-2.09-0.04-4.18,0-6.27C-23.72-14.77-4.17,0.61,4.68,10.79
			C11.73,18.91,16.27,28.89,25.32,36.52z"/>
		<path class="st1" d="M21.14-33.74c2.26,3.6,5.97,6.92,8.88,10.32c2.51,2.93,4.94,6.6,7.57,9.4C45.79-5.28,56.7,0.4,66.06,7.79
			c-1.61,0.58-3.84,1.63-5.48,2.35C53.86,3.63,44.55-0.36,37.46-6.58c-5.65-4.95-17.66-20.44-24.16-27.16
			C15.91-33.74,18.53-33.74,21.14-33.74z"/>
		<path class="st1" d="M233.75,96.85c0,2.87,0,5.75,0,8.62c-7.77-7.41-39.04-37.49-43.1-43.62c-1.59-2.39-3.28-7.08-5.22-10.45
			c0.22,0.03,0.51-0.06,0.65,0c0.95,0.37,9.58,10.26,14.1,14.63C211.09,76.57,222.81,86.34,233.75,96.85z"/>
		<path class="st1" d="M5.2,123.76c0.82,3.35,1.69,6.68,2.87,9.93c-9.5-7.54-20.75-23.17-27.56-29.51
			c-4.18-3.89-10.13-7.59-14.23-12.01c0-3.05,0-6.09,0-9.14c13.08,13.43,27.91,25.43,38.39,41.14
			C4.94,123.95,4.94,123.95,5.2,123.76z"/>
		<path class="st2" d="M233.75,196.89c0,1.92,0,3.83,0,5.75c-3.44-2.27-6.11-5.49-9.27-8.1c-6.2-5.11-13.12-9.43-19.07-14.89
			c-9.86-9.05-14.58-17.89-22.85-27.95c0.65-1.01,1.22-2.1,1.83-3.13c9.38,7.4,14.75,18.43,23.12,26.64
			C214.45,182.03,226.06,190.24,233.75,196.89z"/>
		<path class="st2" d="M21.14,41.48c-0.74,0.99-1.4,2.11-2.09,3.13C5.14,35.1-2.83,19.22-12.56,9.23
			C-19.09,2.51-27.16-2.72-33.71-9.45c0.01-1.57-0.01-3.13,0-4.7C-24.23-4.86-13.35,3.02-4.2,12.62
			C4.59,21.84,12.15,32.4,21.14,41.48z"/>
		<path class="st2" d="M11.73,57.68c-0.82,1.75-1.64,3.42-2.35,5.22c-16.1-14.1-27.83-32.13-43.1-47.01c0-2.35,0-4.7,0-7.05
			C-18.42,25.04-4.73,42.57,11.73,57.68z"/>
		<path class="st1" d="M69.72,192.97c15.25,13.86,29.77,28.62,46.49,40.75c-3.05,0-6.09,0-9.14,0
			c-10.88-7.43-20.34-16.59-29.25-26.25c-2.95-3.19-12.68-15.37-14.1-16.59C65.71,191.05,68.23,192.52,69.72,192.97z"/>
		<path class="st1" d="M88.52-33.74c8.49,7.51,8.49,7.51,16.98,15.02c9.93,11.82,9.93,11.82,19.85,23.64
			c-3.37-0.85-6.75-1.61-10.19-2.09C111.43-1.7,107-8.74,103.15-12.71c-4.6-4.74-16.98-13.36-22.98-21.03
			C82.95-33.74,85.74-33.74,88.52-33.74z"/>
		<path class="st2" d="M233.75,171.82c0,2.26,0,4.53,0,6.79c-14.12-14.09-27.78-27.92-44.4-39.18c0.76-1.72,1.43-3.71,2.09-5.48
			C206.35,146.55,221.87,155.59,233.75,171.82z"/>
		<path class="st1" d="M206.84,233.72c-2.09,0.01-4.18,0-6.27,0c-7.47-6.72-12.69-15.42-19.33-22.85
			c-9.18-10.28-20.53-18.42-29.78-28.6c1.32-0.83,2.63-1.72,3.92-2.61c6.85,7.32,14.83,13.44,21.68,20.76
			C187.19,211.24,195.99,223.5,206.84,233.72z"/>
		<path class="st2" d="M233.75,186.97c0,1.65,0,3.31,0,4.96c-7.4-8.6-19.24-15.5-25.47-21.68c-5.29-5.25-14.01-17.34-22.33-24.03
			c0.49-0.89,0.85-1.97,1.31-2.87c10.91,7.8,20.04,17.41,29.64,26.64C222.65,175.51,229.35,179.68,233.75,186.97z"/>
		<path class="st2" d="M82.52,195.85c4.93,7.65,13.15,12.64,19.72,18.81c6.52,6.12,12.59,12.77,18.94,19.07c-1.65,0-3.31,0-4.96,0
			c-16.72-12.12-31.24-26.89-46.49-40.75C72.76,193.89,79.26,195.29,82.52,195.85z"/>
		<path class="st2" d="M8.08,66.56c-0.64,1.82-1.3,3.63-1.83,5.48C-7.14,58-22.79,45.96-33.71,29.73c0-1.92,0-3.83,0-5.75
			C-20.51,38.92-5.38,51.9,8.08,66.56z"/>
		<path class="st2" d="M13.3-33.74c6.5,6.72,18.51,22.21,24.16,27.16c7.09,6.21,16.4,10.2,23.12,16.72
			c-1.33,0.59-2.62,1.18-3.92,1.83C34.12,1.42,23.15-14.4,8.86-33.74C10.34-33.74,11.82-33.74,13.3-33.74z"/>
		<path class="st1" d="M233.75,178.61c0,2.79,0,5.57,0,8.36c-4.4-7.28-11.1-11.46-16.85-16.98c-9.61-9.23-18.74-18.85-29.64-26.64
			c0.61-1.21,1.64-2.9,2.09-3.92C205.97,150.69,219.62,164.51,233.75,178.61z"/>
		<path class="st2" d="M184.38-33.74c14.6,16.24,32.48,28.88,49.36,42.57c0,2.26,0,4.53,0,6.79c-7.43-7.31-16.24-12.85-24.16-19.59
			c-10.89-9.27-20.64-19.89-30.95-29.78C180.55-33.74,182.47-33.74,184.38-33.74z"/>
		<path class="st1" d="M16.44,150.92c1.89,3.18,5.5,8.46,7.84,11.23c-1.43,0-5.35-3.85-6.79-5.35c-3.24-3.39-5.74-7.52-8.88-10.97
			c-11.87-13.04-30.01-24.04-42.31-40.88c0-2.79,0-5.57,0-8.36c7.26,7.14,13,15.62,19.85,23.12c6.63,7.25,14.12,13.36,19.33,18.81
			C9.3,142.51,12.43,147.21,16.44,150.92z"/>
		<path class="st1" d="M104.46-33.74c5.11,6.14,11.06,11.52,16.19,17.63c6.45,7.66,10.64,15.13,18.41,22.07
			c2.69,2.4,5.84,4.27,8.62,6.53c1.34,1.09,1.1,1.51,1.18,1.57c-4.22-2.37-8.55-4.07-13.06-5.75
			c-14.69-12.83-25.01-29.71-40.22-42.05C98.54-33.74,101.5-33.74,104.46-33.74z"/>
		<path class="st1" d="M19.05,44.62c-1.08,1.61-2.15,3.29-3.13,4.96C0.81,30.16-16.14,12.43-33.71-4.75c0-1.57-0.01-3.13,0-4.7
			c6.55,6.73,14.62,11.96,21.16,18.68C-2.83,19.22,5.14,35.1,19.05,44.62z"/>
		<path class="st1" d="M6.25,72.04c-0.37,1.3-0.72,2.6-1.04,3.92C-9.12,65.1-23.51,53.88-33.71,38.87c0-3.05,0-6.09,0-9.14
			C-22.79,45.96-7.14,58,6.25,72.04z"/>
		<path class="st1" d="M233.75,202.64c-0.01,2.87,0.01,5.75,0,8.62c-6.66-6.78-13.07-13.84-19.98-20.37
			c-2.49-2.36-6.22-4.83-8.62-7.05c-9.28-8.59-17.19-18.5-24.94-28.47c0.76-1.07,1.61-2.51,2.35-3.66
			c8.28,10.05,12.99,18.9,22.85,27.95c5.94,5.45,12.87,9.77,19.07,14.89C227.63,197.15,230.31,200.37,233.75,202.64z"/>
		<path class="st2" d="M27.14-33.74C42.99-14.58,52.1-8.44,71.02,6.22c-1.64,0.49-3.35,0.99-4.96,1.57
			C56.7,0.4,45.79-5.28,37.59-14.02c-2.63-2.81-5.07-6.47-7.57-9.4c-2.91-3.4-6.62-6.72-8.88-10.32
			C23.14-33.74,25.14-33.74,27.14-33.74z"/>
		<path class="st2" d="M80.17-33.74c6.01,7.66,18.39,16.28,22.98,21.03C107-8.74,111.43-1.7,115.17,2.83
			c-2.49-0.35-5.06-0.61-7.57-0.78c-9.73-13.57-25.4-21.93-34.48-35.78C75.46-33.74,77.82-33.74,80.17-33.74z"/>
		<path class="st2" d="M172.1,233.72c-2.44,0-4.88,0-7.31,0c-10.93-14.36-23.45-27.42-35-41.27c1.95-0.63,3.84-1.34,5.75-2.09
			c6.51,11.22,14.19,16.52,21.16,24.16C162.21,220.57,166.83,227.46,172.1,233.72z"/>
		<path class="st2" d="M2.85-33.74c8.74,10.2,13.63,16.66,23.38,26.38C34.2,0.59,42.44,8.12,51.7,14.58
			c-1.76,1.02-3.52,2.26-5.22,3.4C37.95,11.17,30.59,2.9,23.23-5.14c-4.11-4.49-7.5-9.73-11.75-14.1
			c-4.99-5.13-11.15-9.14-15.93-14.5C-2.02-33.75,0.42-33.73,2.85-33.74z"/>
		<path class="st2" d="M13.56,233.72c-1.74,0-3.48,0-5.22,0c-14.42-14.85-28.34-30.2-42.05-45.71c0-2.09,0-4.18,0-6.27
			C-17.23,198.43-2.51,216.66,13.56,233.72z"/>
		<path class="st1" d="M191.96-33.74c12.67,13.65,27.47,25.05,41.4,37.35c0.2-0.13,0.2-0.13,0.39-0.26c0,1.83,0,3.66,0,5.48
			c-16.89-13.69-34.77-26.33-49.36-42.57C186.91-33.74,189.43-33.74,191.96-33.74z"/>
		<path class="st1" d="M8.34,233.72c-1.39,0-2.79,0-4.18,0C-8.61,222.01-21.98,211-33.71,198.2c-0.01-3.4,0-6.79,0-10.19
			C-20.01,203.52-6.08,218.87,8.34,233.72z"/>
		<path class="st2" d="M233.75,105.47c0,2.18,0,4.35,0,6.53c-12.28-13.38-27.39-23.78-38.92-37.87c-1.11-4.15-3.18-8.08-4.18-12.28
			C194.71,67.98,225.97,98.07,233.75,105.47z"/>
		<path class="st1" d="M48.04-33.74C58.34-18.91,74.12-9.72,86.7,2.83c-1.85,0.25-3.94,0.44-5.75,0.78
			C64.25-9.16,53.92-15.41,41.77-33.74C43.86-33.74,45.95-33.74,48.04-33.74z"/>
		<path class="st1" d="M23.23,38.87c-0.68,0.84-1.45,1.76-2.09,2.61C12.15,32.4,4.59,21.84-4.2,12.62
			c-9.15-9.6-20.03-17.48-29.51-26.77c0.01-2.18-0.02-4.35,0-6.53c5.64,5.71,10.86,11.87,16.85,17.24C-8.9,3.7-3.28,6.12,4.94,16.8
			c2.56,3.33,5.52,8.77,8.36,12.28C15.58,31.89,20.51,36.92,23.23,38.87z"/>
		<path class="st2" d="M63.71,190.88c1.43,1.22,11.16,13.39,14.1,16.59c8.91,9.66,18.38,18.82,29.25,26.25c-1.65,0-3.31,0-4.96,0
			c-11.14-6.59-18.66-14.1-27.42-23.38c-4.36-4.62-8.82-10.52-13.06-14.89c-4.56-4.7-9.84-8.47-14.37-13.19
			C50.71,184.37,62.29,189.67,63.71,190.88z"/>
		<path class="st1" d="M138.15,189.32c21.55,22.2,21.55,22.2,43.1,44.4c-3.05,0-6.09,0-9.14,0c-5.28-6.25-9.89-13.15-15.41-19.2
			c-6.97-7.64-14.65-12.94-21.16-24.16C136.4,190.02,137.3,189.68,138.15,189.32z"/>
		<path class="st1" d="M233.75,124.54c0,2.52,0,5.05,0,7.57c-12.83-10.33-25.75-20.75-35.78-33.95c-0.01-2.57-0.07-5.54-0.26-8.1
			C208.01,103.26,220.75,114.09,233.75,124.54z"/>
		<path class="st1" d="M233.75,138.12c0,2.52,0,5.05,0,7.57c-14.59-9.95-25.27-20.48-36.83-33.69c0.36-2.84,0.64-4.59,0.78-7.57
			C208.51,116.88,219.61,129.3,233.75,138.12z"/>
		<path class="st1" d="M103.93,197.15c12.98,11.84,25.64,21.44,35.26,36.57c-1.74,0-3.48,0-5.22,0
			c-10.76-13.83-25.52-23.74-37.61-36.31C98.75,197.46,101.52,197.26,103.93,197.15z"/>
		<path class="st2" d="M158.52,177.56c17.9,18.75,36.55,36.79,53.81,56.16c-1.83,0.01-3.66-0.01-5.48,0
			c-10.86-10.22-19.66-22.47-29.78-33.3c-6.85-7.33-14.83-13.44-21.68-20.76C156.4,178.95,157.55,178.3,158.52,177.56z"/>
		<path class="st1" d="M89.83,196.89c-0.13,0.2-0.13,0.2-0.26,0.39c14.2,10.82,26.03,24.17,38.92,36.44c-2.44,0-4.88,0-7.31,0
			c-6.35-6.29-12.42-12.95-18.94-19.07c-6.57-6.17-14.79-11.15-19.72-18.81C84.95,196.26,87.36,196.68,89.83,196.89z"/>
		<path class="st2" d="M143.37,186.97c12.24,17.67,29.8,30.27,43.36,46.75c-1.83,0-3.66,0-5.48,0c-21.55-22.2-21.55-22.2-43.1-44.4
			C139.85,188.58,141.72,187.79,143.37,186.97z"/>
		<path class="st2" d="M123.52,194.28c13.34,14.02,23.42,22.09,33.95,39.44c-2.35,0-4.7,0-7.05,0
			c-9.95-17.2-19.09-25.13-33.69-37.87C118.66,195.51,121.53,194.77,123.52,194.28z"/>
		<path class="st2" d="M2.33,96.07c-0.12,3.85,0.01,7.65,0.26,11.49C-8.84,94.53-21.72,82.97-33.71,70.47c0-2.26,0-4.53,0-6.79
			C-22.58,75.31-11.37,87.46,2.33,96.07z"/>
		<path class="st1" d="M129.79,192.45c11.55,13.85,24.07,26.91,35,41.27c-2.44,0-4.88,0-7.31,0
			c-10.53-17.35-20.61-25.42-33.95-39.44C125.59,193.77,127.76,193.1,129.79,192.45z"/>
		<path class="st1" d="M233.75,191.93c0,1.65,0,3.31,0,4.96c-7.69-6.65-19.3-14.86-26.25-21.68c-8.37-8.21-13.74-19.24-23.12-26.64
			c0.47-0.8,1.13-1.54,1.57-2.35c8.32,6.69,17.04,18.78,22.33,24.03C214.51,176.42,226.34,183.33,233.75,191.93z"/>
		<path class="st1" d="M233.75,164.76c0,2.35,0,4.7,0,7.05c-11.88-16.23-27.4-25.27-42.31-37.87c0.73-1.96,1.48-4,2.09-6.01
			c5.78,5.19,11.15,10.94,17.11,15.93C218.99,150.88,226.96,154.61,233.75,164.76z"/>
		<path class="st1" d="M9.38,62.9c-0.48,1.22-0.88,2.42-1.31,3.66C-5.38,51.9-20.51,38.92-33.71,23.98c0-2.7,0-5.4,0-8.1
			C-18.45,30.77-6.72,48.8,9.38,62.9z"/>
		<path class="st1" d="M34.98-33.74C45.68-15.38,61.26-9.32,75.2,5.18c-1.4,0.35-2.8,0.63-4.18,1.04
			C52.1-8.44,42.99-14.58,27.14-33.74C29.76-33.74,32.37-33.74,34.98-33.74z"/>
		<path class="st1" d="M233.75,112c0,1.92,0,3.83,0,5.75c-12.86-10.52-24.59-22.22-36.83-33.43c-0.31-2.2-1.51-8.01-2.09-10.19
			C206.36,88.22,221.46,98.62,233.75,112z"/>
		<path class="st2" d="M233.75,155.88c0,2.96,0,5.92,0,8.88c-6.79-10.15-14.75-13.89-23.12-20.9c-5.96-4.99-11.33-10.74-17.11-15.93
			c0.34-1.11,0.75-2.28,1.04-3.4C207.8,134.77,221.07,145.01,233.75,155.88z"/>
		<path class="st2" d="M233.75,117.75c0,2.26,0,4.53,0,6.79c-12.99-10.45-25.73-21.28-36.04-34.48c-0.14-1.85-0.52-3.89-0.78-5.75
			C209.16,95.53,220.89,107.23,233.75,117.75z"/>
		<path class="st1" d="M2.59,89.54c-0.2,2.09-0.19,4.41-0.26,6.53c-13.7-8.62-24.91-20.76-36.04-32.39c0-2.18,0-4.35,0-6.53
			C-22.64,69.02-10.54,80.02,2.59,89.54z"/>
		<path class="st1" d="M73.11-33.74c9.08,13.85,24.75,22.22,34.48,35.78c-1.76-0.12-4.66-0.51-6.01-0.52
			c-11.29-12.81-26.1-21.88-36.83-35.26C67.54-33.74,70.33-33.74,73.11-33.74z"/>
		<path class="st2" d="M41.77-33.74C53.92-15.41,64.25-9.16,80.95,3.61c-1.35,0.26-4.11,1.16-5.75,1.57
			C61.26-9.32,45.68-15.38,34.98-33.74C37.24-33.74,39.51-33.74,41.77-33.74z"/>
		<path class="st1" d="M2.59,107.56c0.11,1.63,0.07,3.33,0.26,4.96c-11.39-12.05-24.89-21.69-36.57-33.43c0-2.87,0-5.75,0-8.62
			C-21.72,82.97-8.84,94.53,2.59,107.56z"/>
		<path class="st1" d="M116.73,195.85c14.6,12.74,23.74,20.67,33.69,37.87c-1.83,0-3.66,0-5.48,0
			c-9.8-17.19-21.06-23.81-34.22-37.09C112.65,196.43,114.84,196.18,116.73,195.85z"/>
		<path class="st2" d="M110.73,196.63c13.16,13.28,24.42,19.9,34.22,37.09c-1.92,0-3.83,0-5.75,0
			c-9.62-15.13-22.29-24.73-35.26-36.57C106.19,197.05,108.48,196.86,110.73,196.63z"/>
		<path class="st2" d="M95.58-33.74c15.21,12.35,25.54,29.22,40.22,42.05c-3.47-1.29-6.85-2.49-10.45-3.4
			C115.43-6.9,115.43-6.9,105.5-18.72c-8.49-7.51-8.49-7.51-16.98-15.02C90.87-33.74,93.23-33.74,95.58-33.74z"/>
		<path class="st1" d="M206.84-33.74c4.38,5.91,10.26,11.76,15.8,16.98c3.46,3.26,7.44,6.78,11.1,9.4c0.01,2.35,0,4.7,0,7.05
			c-13.34-9.18-23.75-21.49-34.48-33.43C201.79-33.73,204.32-33.75,206.84-33.74z"/>
		<path class="st2" d="M233.75,132.12c0,2,0,4,0,6.01c-14.13-8.82-25.24-21.24-36.04-33.69c0.1-2.01,0.27-4.28,0.26-6.27
			C207.99,111.37,220.91,121.78,233.75,132.12z"/>
		<path class="st1" d="M8.86-33.74C23.15-14.4,34.12,1.42,56.66,11.97C55,12.8,53.3,13.65,51.7,14.58
			C42.44,8.12,34.2,0.59,26.23-7.36C16.49-17.08,11.6-23.54,2.85-33.74C4.86-33.74,6.86-33.74,8.86-33.74z"/>
		<path class="st2" d="M52.74-33.74C63.8-19.71,80.69-12.11,91.4,2.3c-1.58,0.15-3.13,0.31-4.7,0.52
			C74.12-9.72,58.34-18.91,48.04-33.74C49.61-33.74,51.17-33.74,52.74-33.74z"/>
		<path class="st2" d="M96.36,197.41c12.09,12.56,26.85,22.48,37.61,36.31c-1.83,0-3.66,0-5.48,0
			c-12.89-12.26-24.71-25.61-38.92-36.44c0.13-0.2,0.13-0.2,0.26-0.39C91.96,197.07,94.24,197.37,96.36,197.41z"/>
		<path class="st1" d="M60.32-33.74c-0.11,0.64,1.59,2.43,2.61,3.53c10.61,11.47,23.35,20.78,34.22,32
			C95.24,1.85,93.3,2.13,91.4,2.3c-10.7-14.41-27.6-22.02-38.66-36.04C55.27-33.74,57.79-33.74,60.32-33.74z"/>
		<path class="st1" d="M233.75,150.14c0,1.92,0,3.83,0,5.75c-12.67-10.88-25.95-21.11-39.18-31.34c0.49-1.87,1.21-4.69,1.57-6.53
			C207.31,130.2,221.03,139.65,233.75,150.14z"/>
		<path class="st2" d="M2.85,112.53c0.44,3.78,1.44,7.54,2.35,11.23c-0.26,0.2-0.26,0.2-0.52,0.39
			C-5.8,108.44-20.63,96.44-33.71,83.01c0-1.31,0-2.61,0-3.92C-22.04,90.83-8.53,100.48,2.85,112.53z"/>
		<path class="st1" d="M4.16,80.4c-0.23,1.14-0.63,2.66-0.78,3.66C-11.19,73.19-22.2,65.75-33.71,51.15c0-2.09,0-4.18,0-6.27
			C-22.69,58.34-9.52,69.73,4.16,80.4z"/>
		<path class="st2" d="M3.38,84.06c-0.26,1.66-0.63,3.87-0.78,5.48c-13.13-9.52-25.24-20.52-36.31-32.39c0-2,0-4,0-6.01
			C-22.2,65.75-11.19,73.19,3.38,84.06z"/>
		<path class="st2" d="M4.16,233.72c-2.09,0-4.18,0-6.27,0c-11.43-9.14-21.76-19.49-31.6-30.3c0-1.74,0-3.48,0-5.22
			C-21.98,211-8.61,222.01,4.16,233.72z"/>
		<path class="st2" d="M213.63-33.74c10.06,9.27,10.06,9.27,20.11,18.54c0.01,2.61-0.01,5.22,0,7.84c-3.66-2.62-7.64-6.14-11.1-9.4
			c-5.54-5.22-11.42-11.07-15.8-16.98C209.11-33.73,211.37-33.75,213.63-33.74z"/>
		<path class="st2" d="M199.27-33.74c10.73,11.94,21.14,24.25,34.48,33.43c0,1.22,0,2.44,0,3.66c-0.2,0.13-0.2,0.13-0.39,0.26
			c-13.93-12.3-28.73-23.7-41.4-37.35C194.39-33.74,196.83-33.75,199.27-33.74z"/>
		<path class="st2" d="M5.2,75.96c-0.36,1.47-0.75,2.95-1.04,4.44C-9.52,69.73-22.69,58.34-33.71,44.88c0-2,0-4,0-6.01
			C-23.51,53.88-9.12,65.1,5.2,75.96z"/>
		<path class="st2" d="M233.75,145.7c0,1.48,0,2.96,0,4.44c-12.71-10.49-26.43-19.94-37.61-32.13c0.38-1.94,0.54-4.04,0.78-6.01
			C208.47,125.22,219.16,135.75,233.75,145.7z"/>
		<path class="st1" d="M-2.11,233.72c-2,0-4,0.01-6.01,0c-8.6-7.34-17.49-14.3-25.6-22.2c-0.01-2.7,0.01-5.4,0-8.1
			C-23.87,214.22-13.54,224.58-2.11,233.72z"/>
		<path class="st2" d="M64.76-33.74c10.72,13.38,25.54,22.45,36.83,35.26c-1.37-0.01-3.02,0.21-4.44,0.26
			c-10.87-11.22-23.61-20.53-34.22-32c-1.02-1.1-2.72-2.89-2.61-3.53C61.8-33.74,63.28-33.74,64.76-33.74z"/>
		<path class="st1" d="M-13.08,233.72c-3.31-0.01-6.62,0.03-9.93,0c-5.35-4.7-5.35-4.7-10.71-9.4c-0.03-2.96,0.01-5.92,0-8.88
			C-23.4,224.58-23.4,224.58-13.08,233.72z"/>
		<path class="st1" d="M221.21-33.74c3.79,4.65,7.92,9.22,12.54,13.06c0.02,1.83-0.01,3.66,0,5.48
			c-10.06-9.27-10.06-9.27-20.11-18.54C216.16-33.73,218.68-33.76,221.21-33.74z"/>
		<path class="st2" d="M-8.12,233.72c-1.65-0.01-3.31,0.01-4.96,0c-10.32-9.14-10.32-9.14-20.63-18.28c-0.01-1.31,0.01-2.61,0-3.92
			C-25.61,219.42-16.72,226.38-8.12,233.72z"/>
		<path class="st2" d="M228.78-33.74c2.48,2.74,2.48,2.74,4.96,5.48c0.04,2.52-0.02,5.05,0,7.57c-4.62-3.84-8.75-8.41-12.54-13.06
			C223.73-33.72,226.26-33.79,228.78-33.74z"/>
		<path class="st2" d="M-23,233.72c-2.73-0.02-5.67,0.17-8.36,0c-1.18-1.31-1.18-1.31-2.35-2.61c-0.12-2.24,0.02-4.54,0-6.79
			C-28.36,229.02-28.36,229.02-23,233.72z"/>
		<path class="st1" d="M228.78-33.74c1.65,0.03,3.31-0.02,4.96,0c0.02,1.83-0.03,3.66,0,5.48C231.26-31,231.26-31,228.78-33.74z"/>
		<path class="st3" d="M-31.36,233.72c-0.78-0.05-1.57,0.03-2.35,0c-0.03-0.87,0.05-1.75,0-2.61
			C-32.54,232.41-32.54,232.41-31.36,233.72z"/>
	</g>
	<g>
		<g>
			<g>
				<g>
					<path class="st4" d="M132.73,112.59c8.89,5.47,19.91,6.34,25.76,15.6c4.84,7.65,3.78,16.42,0.81,24.51
						c-3.85,10.45-14.38,17.19-25.56,16.2c-5.97-0.53-11.57-4.56-17.31-5.67c-27.39-5.29-30.83,25.64-58.77,10.13
						c-5.06-2.81-9.98-7.12-12.28-12.56c-10.06-23.78,17.69-33.7,24.15-41.93c1.45-1.85,2.81-5.6,3.62-6.68
						c5.82-7.78,12.2-14.85,22.34-16.61C115.64,92.09,122.19,106.1,132.73,112.59z"/>
					<path class="st4" d="M107.32,26.38c12.34,10.8,15.91,27.69,10.97,42.9c-8.01,24.67-34.56,25.7-44.83,4.6
						c-6.89-14.16-4.97-33.57,5.96-45.35c6.12-5.23,12.99-7.62,21.16-5.52C102.92,23.61,105.15,25.54,107.32,26.38z"/>
					<path class="st4" d="M48.07,57.32c9.03,4.03,15.6,14.46,17.87,23.6c2.01,8.07,2.06,14.69-0.63,22.68
						c-1.66,2.47-2.89,5.28-5.17,7.35c-7.42,6.73-18.28,5.85-26.18,0.31c-7.52-5.28-13.88-17.98-14.73-26.81
						C17.24,63.86,30.51,49.48,48.07,57.32z"/>
					<path class="st4" d="M160.3,52.73c6.21,3.77,8.05,10.46,8.46,17.16c1.03,16.74-5.95,41.08-26.49,37.08
						c-6.19-1.21-8.2-5.14-11.76-9.19c-2.79-6.12-3.74-12.95-3.13-19.61C128.94,61.15,144.49,43.14,160.3,52.73z"/>
				</g>
			</g>
		</g>
	</g>
</g>
<g>
</g>
<g>
</g>
<g>
</g>
<g>
</g>
<g>
</g>
<g>
</g>
</svg>
