<?xml version="1.0" encoding="utf-8"?>
<!-- Generator: Adobe Illustrator 28.3.0, SVG Export Plug-In . SVG Version: 6.00 Build 0)  -->
<svg version="1.1" id="Lager_1" xmlns="http://www.w3.org/2000/svg" xmlns:xlink="http://www.w3.org/1999/xlink" x="0px" y="0px"
	 viewBox="0 0 200 200" style="enable-background:new 0 0 200 200;" xml:space="preserve">
<style type="text/css">
	.st0{display:none;}
	.st1{display:inline;fill:#968F95;}
	.st2{display:inline;fill:#81787F;}
	.st3{display:inline;fill:#A19F9C;}
	.st4{fill:#D1B586;}
</style>
<g>
	<g id="Background_00000063631315855554697520000016837185240767431842_" class="st0">
		<path class="st1" d="M117-33.7c0,0.3,0,0.3,0,0.7c8,8.7,14.9,18.5,23,27.2c14.7,15.7,21.8,16.6,32.3,26.2
			c6.8,6.2,11.7,14,17.9,20.8c6.3,6.8,12.6,11.5,17.9,16.6c8.6,8.5,17,17.2,25.7,25.6c0,2.9,0,5.8,0,8.6
			c-5.4-6.4-12.2-11.4-18.1-17.2c-5.6-5.4-23.4-23.4-27.8-28.3c-7-7.8-12.2-17.1-20-24.2c-9.3-8.5-19.1-11.5-28.3-21.3
			c-9-9.6-14.6-23.5-29-34.6C112.6-33.7,114.8-33.7,117-33.7z"/>
		<path class="st2" d="M110.5-33.7c14.4,11.2,20,25,29,34.6c9.2,9.8,19,12.8,28.3,21.3c7.8,7.1,13,16.4,20,24.2
			c4.4,5,22.2,22.9,27.8,28.3c6,5.8,12.7,10.8,18.1,17.2c0,1.7,0,3.3,0,5c-10.9-10.5-22.6-20.3-33.6-30.8
			c-4.5-4.4-13.2-14.3-14.1-14.6c-0.1-0.1-0.4,0-0.6,0c-5-8.7-15.2-20.6-22.9-27.2c-4.4-3.8-9.8-7-13.7-10.2
			c-0.1-0.1,0.2-0.5-1.2-1.6c-2.8-2.3-5.9-4.1-8.6-6.5c-7.8-6.9-12-14.4-18.4-22.1c-5.1-6.1-11.1-11.5-16.2-17.6
			C106.5-33.7,108.5-33.7,110.5-33.7z"/>
		<path class="st2" d="M122-33.7c2.6,2.9,4.7,6.1,7.3,9c1.2,1.4,24.9,24.8,26.5,26.2c8.1,7.3,14.5,9.7,24.2,20
			c3.9,4.1,7.1,8.9,11,13.1c12,12.9,30.5,26.7,42.8,42.2c0,2.2,0,4.3,0,6.5c-8.8-8.4-17.1-17.1-25.7-25.6
			c-5.2-5.1-11.6-9.7-17.9-16.6c-6.2-6.8-11.1-14.5-17.9-20.8C161.8,10.7,154.7,9.7,140-5.9c-8.1-8.6-15-18.4-23-27.2
			c0-0.3,0-0.3,0-0.7C118.7-33.7,120.3-33.7,122-33.7z"/>
		<path class="st2" d="M24.3,162.1c2.2,2.6,10.8,11.2,13.3,13.3c5.7,8,13.2,14.4,19.6,21.8c4.5,5.3,8.4,11.2,13.1,16.4
			c6.2,7,13.4,13.2,19.8,20c-2,0-4,0-6,0c-14.4-13.1-27.2-33.3-40.3-45.2c-3-2.7-6.5-4.8-9.4-7.6c-3.4-3.2-16.8-17.3-21.3-22.1
			c-3.4-3.6-6.8-8.5-9.7-11.5c-9.8-10.5-26.2-21.8-37.1-35.9c0-2.2,0-4.3,0-6.5c12.3,16.8,30.4,27.8,42.3,40.9
			c3.1,3.4,5.6,7.6,8.9,11C18.9,158.3,22.9,162.1,24.3,162.1z"/>
		<path class="st1" d="M129.5-33.7c5.6,8.1,13.8,14.9,20.9,22.1c4,4,7.3,8.7,11.6,12.4c5.4,4.6,12,7.6,13.8,9.1
			c3,2.4,8.5,11.1,11.6,14.8c11.4,13.4,33,28.7,46.2,43c0,3.1,0,6.1,0,9.1c-12.3-15.5-30.8-29.2-42.8-42.2c-3.9-4.1-7.1-8.9-11-13.1
			c-9.7-10.3-16.1-12.7-24.2-20c-1.6-1.5-25.3-24.9-26.5-26.2c-2.6-2.9-4.8-6.1-7.3-9C124.5-33.7,127-33.7,129.5-33.7z"/>
		<path class="st2" d="M78.3,233.7c-2.3,0-4.7,0-7.1,0c-10.2-12-23.6-30-34.9-40.2c-4.8-4.3-10.1-7.8-14.8-12.4
			C10.3,170-6.1,147.4-16.1,138.9c-5.6-4.8-12.3-8.6-17.6-13.8c0-1.9,0-3.8,0-5.8c10,9.3,23.5,18.3,32.1,28.3
			c2.5,2.9,5.3,7.5,8.1,10.7c3.1,3.5,19.8,21.7,21.8,23.4c3.6,3.1,10.2,6.9,14.6,10.7C52.2,200.6,69.5,223.2,78.3,233.7z"/>
		<path class="st2" d="M67.1,233.7c-3.4,0-6.8,0-10.2,0c-6.9-6.5-10.8-15.2-16.5-22.6c-4.7-6.1-28.1-30.3-34.6-36.4
			c-6.3-6-13.3-11.2-19.5-17.4c-6.9-6.9-12.7-15.1-20.1-21.6c0-1.8,0-3.7,0-5.5c14.8,13,28.7,27.1,42.3,41.4
			c2.4,2.6,5.1,6.5,7.6,9.1c9.6,10.2,19.3,16.4,25.9,23.5c5.1,5.5,8.5,12.1,13.3,17.8C58.9,226.3,63.3,229.8,67.1,233.7z"/>
		<path class="st1" d="M71.3,233.7c-1.4,0-2.8,0-4.2,0c-3.8-4-8.2-7.4-11.8-11.6c-4.8-5.7-8.2-12.2-13.3-17.8
			c-6.6-7.1-16.3-13.4-25.9-23.5c-2.5-2.7-5.1-6.6-7.6-9.1c-13.6-14.3-27.5-28.4-42.3-41.4c0-1.7,0-3.5,0-5.2
			c5.3,5.3,12,9,17.6,13.8c10,8.5,26.4,31.1,37.7,42.2c4.7,4.6,10,8.1,14.8,12.4C47.7,203.7,61.1,221.7,71.3,233.7z"/>
		<path class="st1" d="M84.1,233.7c-1.9,0-3.8,0-5.8,0c-8.8-10.5-26.1-33.1-35.4-41.3c-4.4-3.9-11-7.6-14.6-10.7
			c-2-1.7-18.8-19.9-21.8-23.4c-2.8-3.2-5.7-7.8-8.1-10.7c-8.6-10.1-22.2-19-32.1-28.3c0-2.6,0-5.2,0-7.8
			c10.9,14.1,27.3,25.4,37.1,35.9c2.8,3,6.3,7.9,9.7,11.5c4.5,4.8,17.9,18.9,21.3,22.1c3,2.7,6.4,4.9,9.4,7.6
			C56.9,200.4,69.7,220.6,84.1,233.7z"/>
		<path class="st2" d="M134.5-33.7c17.1,18,36,34.2,54.1,51.3c14.8,20,27.4,27.5,45.2,43c0,2.3,0,4.7,0,7
			c-13.2-14.2-34.8-29.6-46.2-43c-3.2-3.7-8.7-12.3-11.6-14.8c-1.9-1.5-8.5-4.6-13.8-9.1c-4.3-3.7-7.7-8.4-11.6-12.4
			c-7.1-7.1-15.3-14-20.9-22.1C131.2-33.7,132.8-33.7,134.5-33.7z"/>
		<path class="st1" d="M56.9,233.7c-1.3,0-2.6,0-3.9,0c-7.5-7.3-14.8-14.8-21.4-22.9c-6.5-7.9-13.5-18.9-18-24
			c-7.6-8.6-19.5-15.7-28.3-23.6c-6.7-6.1-12.7-13-18.9-19.6c0-2.6,0-5.2,0-7.8c7.4,6.5,13.2,14.6,20.1,21.6
			c6.1,6.2,13.1,11.4,19.5,17.4c6.5,6.2,30,30.3,34.6,36.4C46.1,218.5,50,227.2,56.9,233.7z"/>
		<path class="st2" d="M53,233.7c-2.9,0-5.8,0-8.6,0c-6.7-7.8-14-15.1-20.1-23.4c-5.5-7.3-9.6-15.6-15.7-22.5
			C0.4,178.6-7.6,175-15,168.7c-6.8-5.7-12.5-12.7-18.7-19.1c0-2,0-4,0-6c6.2,6.6,12.2,13.5,18.9,19.6c8.9,8,20.7,15,28.3,23.6
			c4.5,5.1,11.5,16.1,18,24C38.2,218.9,45.5,226.4,53,233.7z"/>
		<path class="st1" d="M140.2-33.7c5.7,7.8,14.1,13,21,19.6c4.2,4,7.7,8.7,12,12.5c4.5,4.1,10,7.3,14.2,11.6
			c5.2,5.4,8.9,12.2,13.8,17.8c7.8,8.7,22.1,19.6,32.4,25.5c0,2.4,0,4.9,0,7.3c-17.8-15.5-30.4-23-45.2-43
			c-18-17.1-36.9-33.3-54.1-51.3C136.4-33.7,138.3-33.7,140.2-33.7z"/>
		<path class="st2" d="M146.2-33.7c7.2,8.9,15.8,14.6,22.3,20.6c9.2,8.5,18,17.8,27.3,26.2c12.1,16.7,21,24.3,37.9,35.9
			c0,1.4,0,2.8,0,4.2c-10.3-5.8-24.6-16.7-32.4-25.5c-5-5.6-8.6-12.4-13.8-17.8c-4.3-4.4-9.7-7.6-14.2-11.6
			c-4.3-3.9-7.8-8.6-12-12.5c-6.9-6.5-15.3-11.8-21-19.6C142.2-33.7,144.2-33.7,146.2-33.7z"/>
		<path class="st2" d="M41,233.7c-2.4,0-4.9,0-7.3,0c-12.8-11.6-26.4-32.1-36.6-43c-9.5-10.1-21.5-17.5-30.8-27.8c0-2.2,0-4.4,0-6.5
			c10.2,9.9,21.6,18.6,31.6,28.9C12,199.7,26.3,219,41,233.7z"/>
		<path class="st2" d="M233.8,226.1c0,2.4,0,4.7,0,7.1c-1.3,0.2-7.3-5.8-9.4-8c-6-6.1-11.1-13.1-17-19.3
			c-6.3-6.6-13.3-12.4-19.6-19.1c-6-6.4-11.4-13.4-17.2-20c0.8-0.8,2.2-2.6,3.1-3.7c11.4,13,24.2,24.7,36,37.2
			C217.8,208.9,224.8,218.5,233.8,226.1z"/>
		<path class="st1" d="M152.8-33.7c5.4,7.8,13.9,12.8,20.8,19.1c4.3,3.9,7.8,8.6,11.9,12.7c5.6,5.7,11.4,11.2,17,17
			c3.9,4.1,6.9,8.8,11.1,12.7c6.3,5.9,14.1,10.5,20.2,16.7c0,1.6,0,3.1,0,4.7c-16.9-11.7-25.8-19.2-37.9-35.9
			c-9.3-8.5-18.1-17.7-27.3-26.2c-6.6-6.1-15.2-11.7-22.3-20.6C148.4-33.7,150.6-33.7,152.8-33.7z"/>
		<path class="st1" d="M233.8,233.2c0.3,0.9-4.9,0.5-8.1,0.5c-18.4-22.3-41.1-40.3-60.1-62.2c1.7-1.5,3.4-3.1,5-4.7
			c5.9,6.6,11.2,13.6,17.2,20c6.3,6.6,13.3,12.4,19.6,19.1c5.9,6.2,11,13.2,17,19.3C226.4,227.4,232.4,233.4,233.8,233.2z"/>
		<path class="st1" d="M166.4-33.7c4.9,5.9,10.9,11,16.2,16.6c4.5,4.8,8,10.4,12.9,14.8c4.4,3.9,14,10.2,20.9,16.5
			c6.2,5.6,11.4,12.2,17.4,18c0,1.7,0,3.3,0,5c-9.6-7.1-17.8-15.5-26.5-23.5c-5.6-5.1-11.6-9.2-16.9-15c-2.8-3.1-5-6.8-7.8-9.9
			c-7.2-8-17.4-14.2-24.8-22.3C160.6-33.7,163.5-33.7,166.4-33.7z"/>
		<path class="st1" d="M-31.9-33.7c6.8,7.2,13.2,15,20.1,22.1C-4.4-4.1,4,2.6,10.9,10.5c6.2,7.1,10.9,15.9,19.1,21
			c-1.6,1.6-3.2,3.2-4.7,5c-9-7.6-13.6-17.6-20.6-25.7C-4.2,0.6-23.7-14.8-33.7-27c0-2.3,0-4.5,0-6.8
			C-33.1-33.8-32.5-33.7-31.9-33.7z"/>
		<path class="st2" d="M157.7-33.7c7.4,8.1,17.6,14.4,24.8,22.3c2.8,3.1,5,6.8,7.8,9.9c5.3,5.8,11.3,9.9,16.9,15
			c8.7,8,17,16.4,26.5,23.5c0,2.4,0,4.9,0,7.3c-6.1-6.2-13.9-10.8-20.2-16.7c-4.2-3.9-7.2-8.6-11.1-12.7c-5.5-5.8-11.4-11.3-17-17
			c-4.1-4.1-7.6-8.7-11.9-12.7c-6.9-6.3-15.4-11.3-20.8-19.1C154.4-33.7,156.1-33.7,157.7-33.7z"/>
		<path class="st1" d="M33.7,233.7c-2.4,0-4.7,0-7,0C15.3,221.9,6.3,208.1-5,196.2c-8.6-9.1-19.5-15-28.7-27.3c0-2,0-4,0-6
			c9.4,10.3,21.4,17.7,30.8,27.8C7.2,201.6,20.9,222.1,33.7,233.7z"/>
		<path class="st2" d="M-27.4-33.7c11.4,7.3,16.3,15.1,24,22.9C2-5.4,14,5.3,17.5,9.5c4.1,4.9,8,12,15.7,18.9
			c-1.1,1-2.1,2.1-3.1,3.1c-8.2-5.2-12.9-13.9-19.1-21C4,2.6-4.4-4.1-11.8-11.7c-6.9-7.1-13.3-14.9-20.1-22.1
			C-30.5-33.9-28.9-33.7-27.4-33.7z"/>
		<path class="st1" d="M44.4,233.7c-1.1,0-2.3,0-3.4,0c-14.7-14.7-29-34-43.1-48.4c-10-10.2-21.4-18.9-31.6-28.9c0-2.3,0-4.5,0-6.8
			c6.2,6.3,11.9,13.3,18.7,19.1c7.5,6.3,15.4,9.9,23.6,19.2c6.1,6.9,10.2,15.1,15.7,22.5C30.4,218.6,37.7,225.9,44.4,233.7z"/>
		<path class="st1" d="M-4.5-33.7c4.8,5.4,10.9,9.4,15.9,14.5c4.3,4.4,7.6,9.6,11.8,14.1c7.4,8,14.7,16.3,23.2,23.1
			c-2.2,1.5-4.4,3.1-6.5,4.7C23.4,2.8,7.6-17.9-13.1-33.7C-10.2-33.8-7.3-33.7-4.5-33.7z"/>
		<path class="st1" d="M178.6-33.7c10.3,9.9,20.1,20.5,30.9,29.8c7.9,6.7,16.7,12.3,24.2,19.6c0,3.1,0,6.3,0,9.4
			C223.1,9.5,209.5,3.1,198.6-6.3c-7.1-6.1-20.1-20.1-27.6-27.4C173.6-33.7,176.1-33.7,178.6-33.7z"/>
		<path class="st2" d="M171.1-33.7c7.4,7.3,20.5,21.3,27.6,27.4c10.9,9.5,24.5,15.8,35.1,31.3c0,2.4,0,4.7,0,7.1
			c-6-5.8-11.2-12.4-17.4-18c-6.9-6.3-16.5-12.6-20.9-16.5c-4.9-4.4-8.5-10-12.9-14.8c-5.3-5.6-11.2-10.6-16.2-16.6
			C167.9-33.7,169.5-33.7,171.1-33.7z"/>
		<path class="st1" d="M20.9,233.7c-2.4,0-4.9,0-7.3,0c-16.1-17.1-30.8-35.3-47.3-52c0-2.4,0-4.9,0-7.3
			C-13.9,192.8,2.5,214.1,20.9,233.7z"/>
		<path class="st1" d="M-18.3-33.7c21.1,17,36,39.9,54.3,59.6c-1,0.8-1.9,1.7-2.9,2.6c-7.7-6.9-11.5-14-15.7-18.9
			C14,5.3,2-5.4-3.4-10.9c-7.8-7.8-12.6-15.6-24-22.9C-24.4-33.8-21.4-33.7-18.3-33.7z"/>
		<path class="st1" d="M219.9,233.7c-2.5,0-5.1,0-7.6,0c-17.3-19.4-35.9-37.4-53.8-56.2c1-0.7,2.5-2.2,3.7-3.1
			c4.6,7.4,12.6,12.5,18.9,18.5C194.3,205.7,206.6,220.9,219.9,233.7z"/>
		<path class="st1" d="M233.8,218.6c0,2.5,0,5.1,0,7.6c-8.9-7.7-16-17.2-24-25.7c-11.9-12.6-24.6-24.3-36-37.2
			c1.1-1.3,2.3-2.6,3.4-3.9c5.3,7.9,11.6,15.3,18.7,21.7c3.4,3,7.4,5.6,10.7,8.6C216.3,198.6,223.4,210.1,233.8,218.6z"/>
		<path class="st2" d="M26.6,233.7c-1.9,0-3.8,0-5.8,0c-18.3-19.7-34.8-41-54.6-59.3c0-1.8,0-3.7,0-5.5
			c9.2,12.3,20.1,18.2,28.7,27.3C6.3,208.1,15.3,221.9,26.6,233.7z"/>
		<path class="st1" d="M47.3,182.3c4.5,4.7,9.8,8.5,14.4,13.2c4.2,4.4,8.7,10.3,13.1,14.9c8.8,9.3,16.3,16.8,27.4,23.4
			c-4,0-8,0-12,0c-6.4-6.8-13.6-12.9-19.8-20c-4.6-5.2-8.5-11.1-13.1-16.4c-6.4-7.4-13.9-13.9-19.6-21.8
			C38.8,176.5,45.8,181.4,47.3,182.3z"/>
		<path class="st2" d="M233.8,211.3c0,2.4,0,4.9,0,7.3c-10.3-8.5-17.5-20-27.3-29c-3.4-3.1-7.3-5.6-10.7-8.6
			c-7.1-6.4-13.4-13.8-18.7-21.7c0.9-1.2,2.3-2.8,3.1-3.9c7.8,10,15.7,19.9,24.9,28.5c2.4,2.2,6.1,4.7,8.6,7.1
			C220.7,197.4,227.1,204.5,233.8,211.3z"/>
		<path class="st2" d="M-13.1-33.7c20.6,15.9,36.5,36.6,53,56.4c-1.3,1-2.7,2-3.9,3.1C17.7,6.1,2.8-16.8-18.3-33.7
			C-16.6-33.8-14.8-33.7-13.1-33.7z"/>
		<path class="st2" d="M200.6,233.7c-2.3,0-4.5,0-6.8,0c-14.6-17.2-31.2-32.6-46.5-49.1c1.4-0.8,2.8-1.5,4.2-2.4
			c9.2,10.2,20.6,18.3,29.8,28.6C187.9,218.3,193.1,227,200.6,233.7z"/>
		<path class="st2" d="M225.6,233.7c-1.9,0-3.8,0-5.8,0c-13.4-12.8-25.6-28-38.8-40.8c-6.3-6.1-14.3-11.2-18.9-18.5
			c1.1-0.9,2.3-1.9,3.4-2.9C184.5,193.4,207.2,211.4,225.6,233.7z"/>
		<path class="st2" d="M15.9,49.6c-0.8,1.3-1.4,2.6-2.1,3.9C-3,37.1-16.9,18-33.7,1.5c0-2.1,0-4.2,0-6.3
			C-16.1,12.4,0.8,30.2,15.9,49.6z"/>
		<path class="st1" d="M193.8,233.7c-2.4,0-4.7,0-7.1,0c-13.6-16.5-31.1-29.1-43.4-46.8c0.8-0.4,2.7-1.7,3.9-2.4
			C162.6,201.1,179.2,216.5,193.8,233.7z"/>
		<path class="st2" d="M8.1,133.7c1.8,4.8,5.7,12.8,8.4,17.2c-4-3.7-7.1-8.4-11-12.4c-5.2-5.4-12.7-11.6-19.3-18.8
			c-6.8-7.5-12.6-16-19.9-23.1c0-1.5,0-3,0-4.4c4.1,4.4,10.1,8.1,14.2,12C-12.7,110.5-1.4,126.1,8.1,133.7z"/>
		<path class="st1" d="M13.8,53.5c-0.7,1.4-1.4,2.7-2.1,4.2C-4.7,42.6-18.4,25-33.7,8.8c0-2.4,0-4.9,0-7.3
			C-16.9,18-3,37.1,13.8,53.5z"/>
		<path class="st2" d="M25.3,36.5c-0.7,0.8-1.4,1.5-2.1,2.3c-2.7-2-7.6-7-9.9-9.8c-2.8-3.5-5.8-9-8.4-12.3
			C-3.3,6.1-8.9,3.7-16.9-3.4c-6-5.4-11.2-11.5-16.9-17.2c0-2.1,0-4.2,0-6.3c10,12.2,29.6,27.6,38.4,37.7
			C11.7,18.9,16.3,28.9,25.3,36.5z"/>
		<path class="st1" d="M21.1-33.7c2.3,3.6,6,6.9,8.9,10.3c2.5,2.9,4.9,6.6,7.6,9.4C45.8-5.3,56.7,0.4,66.1,7.8
			c-1.6,0.6-3.8,1.6-5.5,2.3c-6.7-6.5-16-10.5-23.1-16.7C31.8-11.5,19.8-27,13.3-33.7C15.9-33.7,18.5-33.7,21.1-33.7z"/>
		<path class="st1" d="M233.8,96.8c0,2.9,0,5.8,0,8.6c-7.8-7.4-39-37.5-43.1-43.6c-1.6-2.4-3.3-7.1-5.2-10.5c0.2,0,0.5-0.1,0.6,0
			c0.9,0.4,9.6,10.3,14.1,14.6C211.1,76.6,222.8,86.3,233.8,96.8z"/>
		<path class="st1" d="M5.2,123.8c0.8,3.3,1.7,6.7,2.9,9.9c-9.5-7.5-20.8-23.2-27.6-29.5c-4.2-3.9-10.1-7.6-14.2-12
			c0-3.1,0-6.1,0-9.1c13.1,13.4,27.9,25.4,38.4,41.1C4.9,123.9,4.9,123.9,5.2,123.8z"/>
		<path class="st2" d="M233.8,196.9c0,1.9,0,3.8,0,5.8c-3.4-2.3-6.1-5.5-9.3-8.1c-6.2-5.1-13.1-9.4-19.1-14.9
			c-9.9-9.1-14.6-17.9-22.9-27.9c0.6-1,1.2-2.1,1.8-3.1c9.4,7.4,14.8,18.4,23.1,26.6C214.4,182,226.1,190.2,233.8,196.9z"/>
		<path class="st2" d="M21.1,41.5c-0.7,1-1.4,2.1-2.1,3.1C5.1,35.1-2.8,19.2-12.6,9.2C-19.1,2.5-27.2-2.7-33.7-9.4
			c0-1.6,0-3.1,0-4.7C-24.2-4.9-13.4,3-4.2,12.6C4.6,21.8,12.1,32.4,21.1,41.5z"/>
		<path class="st2" d="M11.7,57.7c-0.8,1.8-1.6,3.4-2.4,5.2c-16.1-14.1-27.8-32.1-43.1-47c0-2.4,0-4.7,0-7.1
			C-18.4,25-4.7,42.6,11.7,57.7z"/>
		<path class="st1" d="M69.7,193c15.2,13.9,29.8,28.6,46.5,40.8c-3.1,0-6.1,0-9.1,0c-10.9-7.4-20.3-16.6-29.2-26.2
			c-2.9-3.2-12.7-15.4-14.1-16.6C65.7,191.1,68.2,192.5,69.7,193z"/>
		<path class="st1" d="M88.5-33.7c8.5,7.5,8.5,7.5,17,15c9.9,11.8,9.9,11.8,19.8,23.6c-3.4-0.8-6.8-1.6-10.2-2.1
			c-3.7-4.5-8.2-11.6-12-15.5c-4.6-4.7-17-13.4-23-21C82.9-33.7,85.7-33.7,88.5-33.7z"/>
		<path class="st2" d="M233.8,171.8c0,2.3,0,4.5,0,6.8c-14.1-14.1-27.8-27.9-44.4-39.2c0.8-1.7,1.4-3.7,2.1-5.5
			C206.4,146.6,221.9,155.6,233.8,171.8z"/>
		<path class="st1" d="M206.8,233.7c-2.1,0-4.2,0-6.3,0c-7.5-6.7-12.7-15.4-19.3-22.9c-9.2-10.3-20.5-18.4-29.8-28.6
			c1.3-0.8,2.6-1.7,3.9-2.6c6.9,7.3,14.8,13.4,21.7,20.8C187.2,211.2,196,223.5,206.8,233.7z"/>
		<path class="st2" d="M233.8,187c0,1.6,0,3.3,0,5c-7.4-8.6-19.2-15.5-25.5-21.7c-5.3-5.2-14-17.3-22.3-24c0.5-0.9,0.9-2,1.3-2.9
			c10.9,7.8,20,17.4,29.6,26.6C222.6,175.5,229.4,179.7,233.8,187z"/>
		<path class="st2" d="M82.5,195.9c4.9,7.6,13.2,12.6,19.7,18.8c6.5,6.1,12.6,12.8,18.9,19.1c-1.7,0-3.3,0-5,0
			C99.5,221.6,85,206.8,69.7,193C72.8,193.9,79.3,195.3,82.5,195.9z"/>
		<path class="st2" d="M8.1,66.6c-0.6,1.8-1.3,3.6-1.8,5.5c-13.4-14-29-26.1-40-42.3c0-1.9,0-3.8,0-5.8
			C-20.5,38.9-5.4,51.9,8.1,66.6z"/>
		<path class="st2" d="M13.3-33.7C19.8-27,31.8-11.5,37.5-6.6c7.1,6.2,16.4,10.2,23.1,16.7c-1.3,0.6-2.6,1.2-3.9,1.8
			C34.1,1.4,23.1-14.4,8.9-33.7C10.3-33.7,11.8-33.7,13.3-33.7z"/>
		<path class="st1" d="M233.8,178.6c0,2.8,0,5.6,0,8.4c-4.4-7.3-11.1-11.5-16.9-17c-9.6-9.2-18.7-18.9-29.6-26.6
			c0.6-1.2,1.6-2.9,2.1-3.9C206,150.7,219.6,164.5,233.8,178.6z"/>
		<path class="st2" d="M184.4-33.7C199-17.5,216.9-4.9,233.7,8.8c0,2.3,0,4.5,0,6.8C226.3,8.3,217.5,2.8,209.6-4
			c-10.9-9.3-20.6-19.9-30.9-29.8C180.6-33.7,182.5-33.7,184.4-33.7z"/>
		<path class="st1" d="M16.4,150.9c1.9,3.2,5.5,8.5,7.8,11.2c-1.4,0-5.4-3.9-6.8-5.4c-3.2-3.4-5.7-7.5-8.9-11
			c-11.9-13-30-24-42.3-40.9c0-2.8,0-5.6,0-8.4c7.3,7.1,13,15.6,19.9,23.1c6.6,7.2,14.1,13.4,19.3,18.8
			C9.3,142.5,12.4,147.2,16.4,150.9z"/>
		<path class="st1" d="M104.5-33.7c5.1,6.1,11.1,11.5,16.2,17.6C127.1-8.5,131.3-1,139.1,6c2.7,2.4,5.8,4.3,8.6,6.5
			c1.3,1.1,1.1,1.5,1.2,1.6c-4.2-2.4-8.6-4.1-13.1-5.8c-14.7-12.8-25-29.7-40.2-42C98.5-33.7,101.5-33.7,104.5-33.7z"/>
		<path class="st1" d="M19,44.6c-1.1,1.6-2.1,3.3-3.1,5C0.8,30.2-16.1,12.4-33.7-4.8c0-1.6,0-3.1,0-4.7c6.5,6.7,14.6,12,21.2,18.7
			C-2.8,19.2,5.1,35.1,19,44.6z"/>
		<path class="st1" d="M6.2,72c-0.4,1.3-0.7,2.6-1,3.9C-9.1,65.1-23.5,53.9-33.7,38.9c0-3,0-6.1,0-9.1C-22.8,46-7.1,58,6.2,72z"/>
		<path class="st1" d="M233.8,202.6c0,2.9,0,5.8,0,8.6c-6.7-6.8-13.1-13.8-20-20.4c-2.5-2.4-6.2-4.8-8.6-7.1
			c-9.3-8.6-17.2-18.5-24.9-28.5c0.8-1.1,1.6-2.5,2.4-3.7c8.3,10.1,13,18.9,22.9,27.9c5.9,5.4,12.9,9.8,19.1,14.9
			C227.6,197.1,230.3,200.4,233.8,202.6z"/>
		<path class="st2" d="M27.1-33.7C43-14.6,52.1-8.4,71,6.2c-1.6,0.5-3.3,1-5,1.6C56.7,0.4,45.8-5.3,37.6-14
			c-2.6-2.8-5.1-6.5-7.6-9.4c-2.9-3.4-6.6-6.7-8.9-10.3C23.1-33.7,25.1-33.7,27.1-33.7z"/>
		<path class="st2" d="M80.2-33.7c6,7.7,18.4,16.3,23,21c3.9,4,8.3,11,12,15.5c-2.5-0.3-5.1-0.6-7.6-0.8
			c-9.7-13.6-25.4-21.9-34.5-35.8C75.5-33.7,77.8-33.7,80.2-33.7z"/>
		<path class="st2" d="M172.1,233.7c-2.4,0-4.9,0-7.3,0c-10.9-14.4-23.4-27.4-35-41.3c1.9-0.6,3.8-1.3,5.8-2.1
			c6.5,11.2,14.2,16.5,21.2,24.2C162.2,220.6,166.8,227.5,172.1,233.7z"/>
		<path class="st2" d="M2.8-33.7c8.7,10.2,13.6,16.7,23.4,26.4c8,8,16.2,15.5,25.5,21.9c-1.8,1-3.5,2.3-5.2,3.4
			C38,11.2,30.6,2.9,23.2-5.1c-4.1-4.5-7.5-9.7-11.8-14.1c-5-5.1-11.1-9.1-15.9-14.5C-2-33.8,0.4-33.7,2.8-33.7z"/>
		<path class="st2" d="M13.6,233.7c-1.7,0-3.5,0-5.2,0c-14.4-14.9-28.3-30.2-42-45.7c0-2.1,0-4.2,0-6.3
			C-17.2,198.4-2.5,216.7,13.6,233.7z"/>
		<path class="st1" d="M192-33.7c12.7,13.6,27.5,25,41.4,37.3c0.2-0.1,0.2-0.1,0.4-0.3c0,1.8,0,3.7,0,5.5
			C216.9-4.9,199-17.5,184.4-33.7C186.9-33.7,189.4-33.7,192-33.7z"/>
		<path class="st1" d="M8.3,233.7c-1.4,0-2.8,0-4.2,0C-8.6,222-22,211-33.7,198.2c0-3.4,0-6.8,0-10.2C-20,203.5-6.1,218.9,8.3,233.7
			z"/>
		<path class="st2" d="M233.8,105.5c0,2.2,0,4.3,0,6.5c-12.3-13.4-27.4-23.8-38.9-37.9c-1.1-4.2-3.2-8.1-4.2-12.3
			C194.7,68,226,98.1,233.8,105.5z"/>
		<path class="st1" d="M48-33.7c10.3,14.8,26.1,24,38.7,36.6c-1.8,0.2-3.9,0.4-5.8,0.8c-16.7-12.8-27-19-39.2-37.4
			C43.9-33.7,46-33.7,48-33.7z"/>
		<path class="st1" d="M23.2,38.9c-0.7,0.8-1.5,1.8-2.1,2.6c-9-9.1-16.5-19.6-25.3-28.9c-9.1-9.6-20-17.5-29.5-26.8
			c0-2.2,0-4.3,0-6.5C-28.1-15-22.8-8.8-16.9-3.4c8,7.1,13.6,9.6,21.8,20.2c2.6,3.3,5.5,8.8,8.4,12.3C15.6,31.9,20.5,36.9,23.2,38.9
			z"/>
		<path class="st2" d="M63.7,190.9c1.4,1.2,11.2,13.4,14.1,16.6c8.9,9.7,18.4,18.8,29.2,26.2c-1.7,0-3.3,0-5,0
			c-11.1-6.6-18.7-14.1-27.4-23.4c-4.4-4.6-8.8-10.5-13.1-14.9c-4.6-4.7-9.8-8.5-14.4-13.2C50.7,184.4,62.3,189.7,63.7,190.9z"/>
		<path class="st1" d="M138.1,189.3c21.6,22.2,21.6,22.2,43.1,44.4c-3.1,0-6.1,0-9.1,0c-5.3-6.2-9.9-13.1-15.4-19.2
			c-7-7.6-14.6-12.9-21.2-24.2C136.4,190,137.3,189.7,138.1,189.3z"/>
		<path class="st1" d="M233.8,124.5c0,2.5,0,5,0,7.6c-12.8-10.3-25.8-20.8-35.8-33.9c0-2.6-0.1-5.5-0.3-8.1
			C208,103.3,220.8,114.1,233.8,124.5z"/>
		<path class="st1" d="M233.8,138.1c0,2.5,0,5.1,0,7.6c-14.6-9.9-25.3-20.5-36.8-33.7c0.4-2.8,0.6-4.6,0.8-7.6
			C208.5,116.9,219.6,129.3,233.8,138.1z"/>
		<path class="st1" d="M103.9,197.1c13,11.8,25.6,21.4,35.3,36.6c-1.7,0-3.5,0-5.2,0c-10.8-13.8-25.5-23.7-37.6-36.3
			C98.8,197.5,101.5,197.3,103.9,197.1z"/>
		<path class="st2" d="M158.5,177.6c17.9,18.8,36.6,36.8,53.8,56.2c-1.8,0-3.7,0-5.5,0c-10.9-10.2-19.7-22.5-29.8-33.3
			c-6.9-7.3-14.8-13.4-21.7-20.8C156.4,178.9,157.6,178.3,158.5,177.6z"/>
		<path class="st1" d="M89.8,196.9c-0.1,0.2-0.1,0.2-0.3,0.4c14.2,10.8,26,24.2,38.9,36.4c-2.4,0-4.9,0-7.3,0
			c-6.3-6.3-12.4-12.9-18.9-19.1c-6.6-6.2-14.8-11.1-19.7-18.8C84.9,196.3,87.4,196.7,89.8,196.9z"/>
		<path class="st2" d="M143.4,187c12.2,17.7,29.8,30.3,43.4,46.8c-1.8,0-3.7,0-5.5,0c-21.6-22.2-21.6-22.2-43.1-44.4
			C139.9,188.6,141.7,187.8,143.4,187z"/>
		<path class="st2" d="M123.5,194.3c13.3,14,23.4,22.1,34,39.4c-2.4,0-4.7,0-7.1,0c-9.9-17.2-19.1-25.1-33.7-37.9
			C118.7,195.5,121.5,194.8,123.5,194.3z"/>
		<path class="st2" d="M2.3,96.1c-0.1,3.8,0,7.7,0.3,11.5C-8.8,94.5-21.7,83-33.7,70.5c0-2.3,0-4.5,0-6.8
			C-22.6,75.3-11.4,87.5,2.3,96.1z"/>
		<path class="st1" d="M129.8,192.4c11.6,13.9,24.1,26.9,35,41.3c-2.4,0-4.9,0-7.3,0c-10.5-17.4-20.6-25.4-33.9-39.4
			C125.6,193.8,127.8,193.1,129.8,192.4z"/>
		<path class="st1" d="M233.8,191.9c0,1.6,0,3.3,0,5c-7.7-6.6-19.3-14.9-26.2-21.7c-8.4-8.2-13.7-19.2-23.1-26.6
			c0.5-0.8,1.1-1.5,1.6-2.4c8.3,6.7,17,18.8,22.3,24C214.5,176.4,226.3,183.3,233.8,191.9z"/>
		<path class="st1" d="M233.8,164.8c0,2.4,0,4.7,0,7.1c-11.9-16.2-27.4-25.3-42.3-37.9c0.7-2,1.5-4,2.1-6
			c5.8,5.2,11.1,10.9,17.1,15.9C219,150.9,227,154.6,233.8,164.8z"/>
		<path class="st1" d="M9.4,62.9c-0.5,1.2-0.9,2.4-1.3,3.7C-5.4,51.9-20.5,38.9-33.7,24c0-2.7,0-5.4,0-8.1
			C-18.5,30.8-6.7,48.8,9.4,62.9z"/>
		<path class="st1" d="M35-33.7C45.7-15.4,61.3-9.3,75.2,5.2c-1.4,0.3-2.8,0.6-4.2,1c-18.9-14.7-28-20.8-43.9-40
			C29.8-33.7,32.4-33.7,35-33.7z"/>
		<path class="st1" d="M233.8,112c0,1.9,0,3.8,0,5.8c-12.9-10.5-24.6-22.2-36.8-33.4c-0.3-2.2-1.5-8-2.1-10.2
			C206.4,88.2,221.5,98.6,233.8,112z"/>
		<path class="st2" d="M233.8,155.9c0,3,0,5.9,0,8.9c-6.8-10.1-14.8-13.9-23.1-20.9c-6-5-11.3-10.7-17.1-15.9c0.3-1.1,0.8-2.3,1-3.4
			C207.8,134.8,221.1,145,233.8,155.9z"/>
		<path class="st2" d="M233.8,117.8c0,2.3,0,4.5,0,6.8c-13-10.4-25.7-21.3-36-34.5c-0.1-1.8-0.5-3.9-0.8-5.8
			C209.2,95.5,220.9,107.2,233.8,117.8z"/>
		<path class="st1" d="M2.6,89.5c-0.2,2.1-0.2,4.4-0.3,6.5c-13.7-8.6-24.9-20.8-36-32.4c0-2.2,0-4.3,0-6.5
			C-22.6,69-10.5,80,2.6,89.5z"/>
		<path class="st1" d="M73.1-33.7C82.2-19.9,97.9-11.5,107.6,2c-1.8-0.1-4.7-0.5-6-0.5C90.3-11.3,75.5-20.4,64.7-33.7
			C67.5-33.7,70.3-33.7,73.1-33.7z"/>
		<path class="st2" d="M41.8-33.7C53.9-15.4,64.2-9.2,80.9,3.6c-1.3,0.3-4.1,1.2-5.8,1.6C61.3-9.3,45.7-15.4,35-33.7
			C37.2-33.7,39.5-33.7,41.8-33.7z"/>
		<path class="st1" d="M2.6,107.6c0.1,1.6,0.1,3.3,0.3,5C-8.5,100.5-22,90.8-33.7,79.1c0-2.9,0-5.8,0-8.6
			C-21.7,83-8.8,94.5,2.6,107.6z"/>
		<path class="st1" d="M116.7,195.9c14.6,12.7,23.7,20.7,33.7,37.9c-1.8,0-3.7,0-5.5,0c-9.8-17.2-21.1-23.8-34.2-37.1
			C112.7,196.4,114.8,196.2,116.7,195.9z"/>
		<path class="st2" d="M110.7,196.6c13.2,13.3,24.4,19.9,34.2,37.1c-1.9,0-3.8,0-5.8,0c-9.6-15.1-22.3-24.7-35.3-36.6
			C106.2,197.1,108.5,196.9,110.7,196.6z"/>
		<path class="st2" d="M95.6-33.7c15.2,12.4,25.5,29.2,40.2,42c-3.5-1.3-6.9-2.5-10.4-3.4c-9.9-11.8-9.9-11.8-19.9-23.6
			c-8.5-7.5-8.5-7.5-17-15C90.9-33.7,93.2-33.7,95.6-33.7z"/>
		<path class="st1" d="M206.8-33.7c4.4,5.9,10.3,11.8,15.8,17c3.5,3.3,7.4,6.8,11.1,9.4c0,2.3,0,4.7,0,7.1
			c-13.3-9.2-23.8-21.5-34.5-33.4C201.8-33.7,204.3-33.8,206.8-33.7z"/>
		<path class="st2" d="M233.8,132.1c0,2,0,4,0,6c-14.1-8.8-25.2-21.2-36-33.7c0.1-2,0.3-4.3,0.3-6.3
			C208,111.4,220.9,121.8,233.8,132.1z"/>
		<path class="st1" d="M8.9-33.7C23.1-14.4,34.1,1.4,56.7,12c-1.7,0.8-3.4,1.7-5,2.6c-9.3-6.5-17.5-14-25.5-21.9
			c-9.7-9.7-14.6-16.2-23.4-26.4C4.9-33.7,6.9-33.7,8.9-33.7z"/>
		<path class="st2" d="M52.7-33.7c11.1,14,28,21.6,38.7,36c-1.6,0.2-3.1,0.3-4.7,0.5C74.1-9.7,58.3-18.9,48-33.7
			C49.6-33.7,51.2-33.7,52.7-33.7z"/>
		<path class="st2" d="M96.4,197.4c12.1,12.6,26.8,22.5,37.6,36.3c-1.8,0-3.7,0-5.5,0c-12.9-12.3-24.7-25.6-38.9-36.4
			c0.1-0.2,0.1-0.2,0.3-0.4C92,197.1,94.2,197.4,96.4,197.4z"/>
		<path class="st1" d="M60.3-33.7c-0.1,0.6,1.6,2.4,2.6,3.5c10.6,11.5,23.3,20.8,34.2,32c-1.9,0.1-3.8,0.3-5.8,0.5
			c-10.7-14.4-27.6-22-38.7-36C55.3-33.7,57.8-33.7,60.3-33.7z"/>
		<path class="st1" d="M233.8,150.1c0,1.9,0,3.8,0,5.8c-12.7-10.9-25.9-21.1-39.2-31.3c0.5-1.9,1.2-4.7,1.6-6.5
			C207.3,130.2,221,139.6,233.8,150.1z"/>
		<path class="st2" d="M2.8,112.5c0.4,3.8,1.4,7.5,2.3,11.2c-0.3,0.2-0.3,0.2-0.5,0.4C-5.8,108.4-20.6,96.4-33.7,83
			c0-1.3,0-2.6,0-3.9C-22,90.8-8.5,100.5,2.8,112.5z"/>
		<path class="st1" d="M4.2,80.4c-0.2,1.1-0.6,2.7-0.8,3.7c-14.6-10.9-25.6-18.3-37.1-32.9c0-2.1,0-4.2,0-6.3
			C-22.7,58.3-9.5,69.7,4.2,80.4z"/>
		<path class="st2" d="M3.4,84.1c-0.3,1.7-0.6,3.9-0.8,5.5C-10.5,80-22.6,69-33.7,57.2c0-2,0-4,0-6C-22.2,65.8-11.2,73.2,3.4,84.1z"
			/>
		<path class="st2" d="M4.2,233.7c-2.1,0-4.2,0-6.3,0c-11.4-9.1-21.8-19.5-31.6-30.3c0-1.7,0-3.5,0-5.2C-22,211-8.6,222,4.2,233.7z"
			/>
		<path class="st2" d="M213.6-33.7c10.1,9.3,10.1,9.3,20.1,18.5c0,2.6,0,5.2,0,7.8c-3.7-2.6-7.6-6.1-11.1-9.4
			c-5.5-5.2-11.4-11.1-15.8-17C209.1-33.7,211.4-33.8,213.6-33.7z"/>
		<path class="st2" d="M199.3-33.7C210-21.8,220.4-9.5,233.8-0.3c0,1.2,0,2.4,0,3.7c-0.2,0.1-0.2,0.1-0.4,0.3
			C219.4-8.7,204.6-20.1,192-33.7C194.4-33.7,196.8-33.8,199.3-33.7z"/>
		<path class="st2" d="M5.2,76c-0.4,1.5-0.8,2.9-1,4.4C-9.5,69.7-22.7,58.3-33.7,44.9c0-2,0-4,0-6C-23.5,53.9-9.1,65.1,5.2,76z"/>
		<path class="st2" d="M233.8,145.7c0,1.5,0,3,0,4.4c-12.7-10.5-26.4-19.9-37.6-32.1c0.4-1.9,0.5-4,0.8-6
			C208.5,125.2,219.2,135.8,233.8,145.7z"/>
		<path class="st1" d="M-2.1,233.7c-2,0-4,0-6,0c-8.6-7.3-17.5-14.3-25.6-22.2c0-2.7,0-5.4,0-8.1C-23.9,214.2-13.5,224.6-2.1,233.7z
			"/>
		<path class="st2" d="M64.8-33.7c10.7,13.4,25.5,22.5,36.8,35.3c-1.4,0-3,0.2-4.4,0.3c-10.9-11.2-23.6-20.5-34.2-32
			c-1-1.1-2.7-2.9-2.6-3.5C61.8-33.7,63.3-33.7,64.8-33.7z"/>
		<path class="st1" d="M-13.1,233.7c-3.3,0-6.6,0-9.9,0c-5.4-4.7-5.4-4.7-10.7-9.4c0-3,0-5.9,0-8.9
			C-23.4,224.6-23.4,224.6-13.1,233.7z"/>
		<path class="st1" d="M221.2-33.7c3.8,4.6,7.9,9.2,12.5,13.1c0,1.8,0,3.7,0,5.5c-10.1-9.3-10.1-9.3-20.1-18.5
			C216.2-33.7,218.7-33.8,221.2-33.7z"/>
		<path class="st2" d="M-8.1,233.7c-1.6,0-3.3,0-5,0c-10.3-9.1-10.3-9.1-20.6-18.3c0-1.3,0-2.6,0-3.9
			C-25.6,219.4-16.7,226.4-8.1,233.7z"/>
		<path class="st2" d="M228.8-33.7c2.5,2.7,2.5,2.7,5,5.5c0,2.5,0,5,0,7.6c-4.6-3.8-8.8-8.4-12.5-13.1
			C223.7-33.7,226.3-33.8,228.8-33.7z"/>
		<path class="st2" d="M-23,233.7c-2.7,0-5.7,0.2-8.4,0c-1.2-1.3-1.2-1.3-2.3-2.6c-0.1-2.2,0-4.5,0-6.8C-28.4,229-28.4,229-23,233.7
			z"/>
		<path class="st1" d="M228.8-33.7c1.6,0,3.3,0,5,0c0,1.8,0,3.7,0,5.5C231.3-31,231.3-31,228.8-33.7z"/>
		<path class="st3" d="M-31.4,233.7c-0.8-0.1-1.6,0-2.3,0c0-0.9,0-1.8,0-2.6C-32.5,232.4-32.5,232.4-31.4,233.7z"/>
	</g>
	<g>
		<g>
			<g>
				<g>
					<path class="st4" d="M132.7,112.6c8.9,5.5,19.9,6.3,25.8,15.6c4.8,7.6,3.8,16.4,0.8,24.5c-3.9,10.4-14.4,17.2-25.6,16.2
						c-6-0.5-11.6-4.6-17.3-5.7c-27.4-5.3-30.8,25.6-58.8,10.1c-5.1-2.8-10-7.1-12.3-12.6c-10.1-23.8,17.7-33.7,24.1-41.9
						c1.4-1.8,2.8-5.6,3.6-6.7c5.8-7.8,12.2-14.8,22.3-16.6C115.6,92.1,122.2,106.1,132.7,112.6z"/>
					<path class="st4" d="M107.3,26.4c12.3,10.8,15.9,27.7,11,42.9c-8,24.7-34.6,25.7-44.8,4.6c-6.9-14.2-5-33.6,6-45.3
						c6.1-5.2,13-7.6,21.2-5.5C102.9,23.6,105.2,25.5,107.3,26.4z"/>
					<path class="st4" d="M48.1,57.3c9,4,15.6,14.5,17.9,23.6c2,8.1,2.1,14.7-0.6,22.7c-1.7,2.5-2.9,5.3-5.2,7.3
						c-7.4,6.7-18.3,5.8-26.2,0.3c-7.5-5.3-13.9-18-14.7-26.8C17.2,63.9,30.5,49.5,48.1,57.3z"/>
					<path class="st4" d="M160.3,52.7c6.2,3.8,8.1,10.5,8.5,17.2c1,16.7-5.9,41.1-26.5,37.1c-6.2-1.2-8.2-5.1-11.8-9.2
						c-2.8-6.1-3.7-12.9-3.1-19.6C128.9,61.2,144.5,43.1,160.3,52.7z"/>
				</g>
			</g>
		</g>
	</g>
</g>
</svg>
